<svg width="165" height="33" viewBox="0 0 165 33" fill="none" xmlns="http://www.w3.org/2000/svg">
<path d="M19.8942 10.555C19.5966 11.3591 19.0701 12.0557 18.3815 12.5569C17.6928 13.0581 16.8728 13.3412 16.0252 13.3705C15.1775 13.3999 14.3403 13.1741 13.6195 12.7217C12.8986 12.2693 12.3264 11.6106 11.9753 10.829C11.6242 10.0473 11.5099 9.17785 11.6469 8.33045C11.7839 7.48305 12.166 6.6958 12.7449 6.06827C13.3238 5.44074 14.0735 5.0011 14.8992 4.80496C15.7249 4.60882 16.5895 4.66498 17.3837 4.96634C18.4485 5.37043 19.3113 6.18623 19.7821 7.23428C20.2529 8.28234 20.2932 9.47682 19.8942 10.555V10.555Z" fill="#0099CC"/>
<path d="M10.8267 16.5304C11.6209 16.8323 12.3088 17.3659 12.8034 18.0637C13.298 18.7614 13.5771 19.5921 13.6053 20.4505C13.6335 21.3089 13.4096 22.1565 12.9619 22.886C12.5142 23.6155 11.8629 24.1942 11.0902 24.5489C10.3176 24.9035 9.45846 25.0182 8.62146 24.8784C7.78446 24.7386 7.00723 24.3505 6.38809 23.7634C5.76896 23.1762 5.33575 22.4164 5.14327 21.5799C4.95079 20.7434 5.00769 19.868 5.30677 19.0642C5.50344 18.5298 5.80254 18.0401 6.18687 17.6231C6.57119 17.2062 7.03315 16.8703 7.54618 16.6348C8.0592 16.3993 8.61315 16.2689 9.17616 16.251C9.73917 16.233 10.3001 16.328 10.8267 16.5304V16.5304Z" fill="#0099CC"/>
<path d="M14.6471 29.6574L14.3586 32.6964C11.8526 32.4554 9.4392 31.6138 7.31809 30.2413C5.19698 28.8688 3.42907 27.0047 2.16057 24.8033C0.892075 22.6019 0.159431 20.1264 0.0232306 17.5815C-0.11297 15.0366 0.351188 12.4955 1.37732 10.1682L4.1373 11.4075C4.53024 11.5946 4.88106 11.8614 5.16805 12.1913C5.45504 12.5213 5.67209 12.9073 5.80577 13.3256C5.8676 14.2098 5.99267 15.0883 6.18 15.9542C5.03563 16.7604 4.23336 17.9737 3.93309 19.3521C3.63282 20.7305 3.8566 22.1728 4.55982 23.3917C5.26305 24.6105 6.39408 25.5163 7.7275 25.9285C9.06091 26.3407 10.4988 26.2291 11.7545 25.6159C12.4057 26.1941 13.099 26.7218 13.8284 27.1946C14.1297 27.5228 14.3584 27.9121 14.4996 28.3368C14.6407 28.7614 14.691 29.2116 14.6471 29.6574V29.6574Z" fill="#0C1744"/>
<path d="M23.9796 16.483C24.7738 16.7843 25.4619 17.3173 25.9569 18.0145C26.4519 18.7118 26.7316 19.542 26.7606 20.4002C26.7895 21.2583 26.5665 22.1059 26.1196 22.8358C25.6728 23.5656 25.0222 24.1449 24.2502 24.5004C23.4782 24.8559 22.6194 24.9716 21.7824 24.8329C20.9454 24.6942 20.1678 24.3074 19.548 23.7213C18.9282 23.1351 18.4939 22.3761 18.3002 21.5401C18.1065 20.7042 18.1619 19.8288 18.4596 19.0248C18.8604 17.948 19.6664 17.0759 20.701 16.5995C21.7356 16.1231 22.9145 16.0812 23.9796 16.483V16.483Z" fill="#0099CC"/>
<path d="M31.6514 15.0148C31.8719 17.1119 31.6822 19.2325 31.0931 21.2554C30.504 23.2782 29.5271 25.1637 28.218 26.8043C26.909 28.4448 25.2936 29.8081 23.464 30.8164C21.6345 31.8247 19.6266 32.4581 17.5552 32.6806L17.2355 29.6416C17.1989 29.2078 17.249 28.771 17.383 28.3574C17.517 27.9437 17.732 27.5616 18.0152 27.234C18.7415 26.7376 19.4296 26.1861 20.0735 25.5843C21.3335 26.1778 22.7679 26.2698 24.0918 25.842C25.4158 25.4142 26.5323 24.4978 27.2197 23.275C27.907 22.0521 28.115 20.6123 27.8021 19.2414C27.4893 17.8705 26.6786 16.6689 25.5311 15.8752C25.7102 15.006 25.8274 14.125 25.8819 13.2388C26.01 12.8212 26.2224 12.435 26.5055 12.1048C26.7887 11.7746 27.1366 11.5076 27.527 11.3207L30.2714 10.0577C30.9943 11.6232 31.4604 13.2975 31.6514 15.0148V15.0148Z" fill="#0C1744"/>
<path d="M28.6965 7.31863L26.2484 9.11046C25.892 9.3571 25.49 9.52829 25.0667 9.61374C24.6433 9.6992 24.2072 9.69716 23.7847 9.60776C22.999 9.20958 22.1861 8.86927 21.3521 8.58949C21.2357 7.18736 20.6033 5.88067 19.5802 4.92831C18.5571 3.97595 17.218 3.44741 15.8283 3.44741C14.4385 3.44741 13.0994 3.97595 12.0763 4.92831C11.0532 5.88067 10.4208 7.18736 10.3044 8.58949C9.47225 8.8649 8.65954 9.1972 7.87186 9.58408C7.44959 9.67867 7.01249 9.68331 6.58836 9.5977C6.16422 9.51209 5.7623 9.3381 5.40814 9.08678L2.96002 7.31863C4.4324 5.25951 6.36603 3.58318 8.60224 2.42717C10.8384 1.27117 13.3135 0.668442 15.8244 0.668442C18.3352 0.668442 20.8103 1.27117 23.0465 2.42717C25.2827 3.58318 27.2163 5.25951 28.6887 7.31863H28.6965Z" fill="#0C1744"/>
<path d="M39.8311 2.24964H42.0434C42.4071 2.25485 42.7547 2.40201 43.0138 2.66042C43.2728 2.91883 43.4233 3.26854 43.4339 3.63658V28.7957C43.4376 29.1699 43.2962 29.5306 43.0401 29.8003C42.7839 30.07 42.4334 30.2272 42.064 30.2381H39.8311C39.6437 30.239 39.458 30.2024 39.2848 30.1302C39.1115 30.058 38.9541 29.9518 38.8216 29.8177C38.6891 29.6836 38.5842 29.5242 38.513 29.3488C38.4417 29.1734 38.4055 28.9854 38.4064 28.7957V3.63658C38.4188 3.26314 38.5746 2.90934 38.8407 2.65036C39.1067 2.39138 39.462 2.24762 39.8311 2.24964Z" fill="#0099CC"/>
<path d="M67.277 20.6682C67.277 21.0361 67.1327 21.3888 66.8758 21.6489C66.6189 21.909 66.2705 22.0552 65.9071 22.0552H52.3314C53.0164 24.7389 55.2562 26.216 58.0234 26.216C59.4701 26.2249 60.873 25.7138 61.9824 24.7736C62.1447 24.6122 62.3558 24.5108 62.5819 24.4856C62.808 24.4605 63.0359 24.513 63.229 24.6349L65.4825 26.0218C65.6189 26.1081 65.7344 26.2242 65.8206 26.3617C65.9068 26.4992 65.9615 26.6545 65.9805 26.8162C65.9996 26.9779 65.9826 27.1419 65.9308 27.296C65.8789 27.4502 65.7936 27.5906 65.6811 27.7069C63.6219 29.6965 60.8692 30.7809 58.0234 30.7235C51.3793 30.7235 46.9888 26.2784 46.9888 20.1065C46.9888 13.7404 51.6944 9.46173 57.2631 9.46173C62.9276 9.46173 67.5579 13.5047 67.277 20.6682ZM62.2974 18.144C62.148 16.937 61.5483 15.8337 60.6211 15.06C59.694 14.2864 58.5097 13.9011 57.311 13.9832C56.1281 13.9648 54.9773 14.3734 54.0649 15.1358C53.1525 15.8982 52.5379 16.9646 52.3314 18.144H62.2974Z" fill="#0099CC"/>
<path d="M87.2913 9.94023H89.4694C89.6568 9.93931 89.8424 9.97599 90.0157 10.0482C90.189 10.1203 90.3464 10.2265 90.4788 10.3607C90.6113 10.4948 90.7162 10.6542 90.7875 10.8296C90.8588 11.005 90.895 11.193 90.8941 11.3826V28.7957C90.895 28.9854 90.8588 29.1733 90.7875 29.3488C90.7162 29.5242 90.6113 29.6836 90.4788 29.8177C90.3464 29.9518 90.189 30.058 90.0157 30.1302C89.8424 30.2023 89.6568 30.239 89.4694 30.2381H87.2913C87.1039 30.239 86.9182 30.2023 86.745 30.1302C86.5717 30.058 86.4143 29.9518 86.2818 29.8177C86.1494 29.6836 86.0445 29.5242 85.9732 29.3488C85.9019 29.1733 85.8657 28.9854 85.8666 28.7957V27.8387C84.6063 29.5169 82.5857 30.7235 79.4623 30.7235C73.2566 30.7235 69.6949 25.3977 69.6949 20.1065C69.6949 14.8153 73.2566 9.46173 79.4623 9.46173C82.5857 9.46173 84.6063 10.6614 85.8666 12.3396V11.3826C85.8657 11.193 85.9019 11.005 85.9732 10.8296C86.0445 10.6542 86.1494 10.4948 86.2818 10.3607C86.4143 10.2265 86.5717 10.1203 86.745 10.0482C86.9182 9.97599 87.1039 9.93931 87.2913 9.94023V9.94023ZM85.6748 20.1065C85.6748 16.9443 83.6953 14.3438 80.2568 14.3438C76.8184 14.3438 74.832 16.9859 74.832 20.1065C74.832 23.2271 76.8115 25.8762 80.2568 25.8762C83.7021 25.8762 85.6748 23.2341 85.6748 20.1065Z" fill="#0099CC"/>
<path d="M113.833 17.9082V28.7957C113.834 28.9854 113.798 29.1734 113.727 29.3488C113.655 29.5242 113.55 29.6836 113.418 29.8177C113.285 29.9518 113.128 30.058 112.955 30.1302C112.781 30.2024 112.596 30.239 112.408 30.2381H110.23C110.043 30.239 109.858 30.2023 109.685 30.1301C109.512 30.0578 109.355 29.9515 109.223 29.8173C109.091 29.6831 108.987 29.5236 108.917 29.3483C108.846 29.1729 108.811 28.985 108.812 28.7957V18.9484C108.812 16.3479 107.744 14.3854 104.895 14.3854C101.929 14.3854 100.62 16.5837 100.62 18.9484V28.7957C100.626 29.1704 100.485 29.5321 100.229 29.8023C99.9721 30.0724 99.6206 30.229 99.2505 30.2381H97.0381C96.6681 30.229 96.3166 30.0724 96.0601 29.8023C95.8035 29.5321 95.6627 29.1704 95.6682 28.7957V11.3827C95.6627 11.008 95.8035 10.6462 96.0601 10.3761C96.3166 10.106 96.6681 9.94933 97.0381 9.94023H99.2505C99.6206 9.94933 99.9721 10.106 100.229 10.3761C100.485 10.6462 100.626 11.008 100.62 11.3827V12.4229C101.263 11.4619 102.14 10.6846 103.166 10.166C104.191 9.6474 105.332 9.40486 106.477 9.46174C111.539 9.46174 113.833 13.581 113.833 17.9082Z" fill="#0099CC"/>
<path d="M116.415 26.8124L118.881 24.4892C119.497 25.3252 120.298 26.003 121.22 26.4679C122.142 26.9329 123.159 27.172 124.19 27.166C126.169 27.166 127.662 25.9455 127.662 24.0801V24.0246C127.662 22.0136 125.854 20.8832 123.039 20.8832H121.381L120.806 18.6433L126.244 12.7973H117.532V9.68364H130.834V12.3604L125.231 18.1995C128.279 18.5739 131.149 20.1481 131.149 23.8998V23.9553C131.149 27.7069 128.306 30.4115 124.114 30.4115C122.644 30.4541 121.183 30.1513 119.847 29.5269C118.512 28.9025 117.337 27.9734 116.415 26.8124Z" fill="#0C1744"/>
<path d="M135.491 28.2409C133.971 26.7014 133.053 24.5725 133.053 20.474V20.4186C133.053 14.1773 135.984 9.32304 141.669 9.32304C143.931 9.27714 146.129 10.0855 147.834 11.5907L145.937 14.3646C144.526 13.262 143.348 12.5962 141.567 12.5962C138.067 12.5962 136.772 16.2855 136.772 19.0802C137.377 18.4055 138.118 17.8705 138.946 17.5116C139.773 17.1526 140.667 16.978 141.567 16.9998C145.444 16.9998 148.581 19.3298 148.581 23.4005V23.456C148.581 27.4989 145.334 30.3907 141.108 30.3907C140.076 30.4413 139.045 30.2766 138.079 29.9067C137.113 29.5369 136.232 28.9699 135.491 28.2409V28.2409ZM145.033 23.6155V23.56C145.033 21.5212 143.423 20.0094 140.923 20.0094C138.423 20.0094 136.813 21.6391 136.813 23.5877V23.6432C136.813 25.7236 138.478 27.277 140.978 27.277C143.478 27.277 145.033 25.7098 145.033 23.6155V23.6155Z" fill="#0C1744"/>
<path d="M150.094 27.277L152.273 24.6903C153.875 26.2021 155.574 27.1314 157.437 27.1314C159.855 27.1314 161.43 25.7444 161.43 23.6155V23.56C161.43 21.4796 159.711 20.1828 157.266 20.1828C155.98 20.2004 154.714 20.5084 153.56 21.0843L151.437 19.6627L152.012 9.68364H164.054V12.8528H155.06L154.745 17.6239C155.763 17.2266 156.846 17.0289 157.937 17.0414C161.841 17.0414 164.944 19.1218 164.944 23.4421V23.4976C164.944 27.6584 161.93 30.3907 157.471 30.3907C156.099 30.3969 154.739 30.1246 153.472 29.5898C152.205 29.055 151.056 28.2686 150.094 27.277V27.277Z" fill="#0C1744"/>
</svg>
